<?xml version="1.0" standalone="no"?>
<!DOCTYPE svg PUBLIC "-//W3C//DTD SVG 20010904//EN"
 "http://www.w3.org/TR/2001/REC-SVG-20010904/DTD/svg10.dtd">
<svg version="1.0" xmlns="http://www.w3.org/2000/svg"
 width="335.000000pt" height="335.000000pt" viewBox="0 0 335.000000 335.000000"
 preserveAspectRatio="xMidYMid meet">
<metadata>
Created by potrace 1.11, written by Peter Selinger 2001-2013
</metadata>
<g transform="translate(0.000000,335.000000) scale(0.100000,-0.100000)"
fill="#000000" stroke="none">
<path d="M1805 2716 c-11 -8 -28 -16 -37 -16 -10 0 -18 -4 -18 -9 0 -5 -10
-12 -22 -16 -17 -5 -19 -8 -8 -11 37 -13 60 -28 60 -40 0 -10 9 -12 29 -8 27
6 38 -2 115 -78 85 -84 104 -117 92 -163 -8 -32 -50 -43 -85 -24 -29 16 -81
110 -81 146 0 13 -4 22 -9 18 -5 -3 -13 4 -16 16 l-7 21 -19 -21 c-11 -12 -22
-21 -25 -21 -2 0 -20 25 -40 55 -19 31 -39 53 -45 50 -10 -7 4 -39 21 -50 18
-11 11 -35 -10 -35 -11 0 -20 5 -20 11 0 5 -15 16 -34 24 -36 15 -46 31 -46
71 0 29 24 41 46 23 12 -10 18 -9 32 4 10 11 12 17 4 17 -7 0 -12 7 -12 15 0
12 -13 15 -57 15 -85 0 -114 -22 -164 -122 -41 -82 -42 -84 -134 -141 l-92
-57 -99 19 c-161 31 -262 44 -281 36 -10 -4 -47 -9 -81 -11 -48 -4 -62 -2 -56
7 5 9 -2 10 -27 5 -19 -3 -35 -11 -37 -16 -2 -5 -9 -7 -16 -4 -16 6 -68 -13
-77 -28 -4 -7 -16 -13 -26 -14 -99 -16 -190 -53 -297 -122 -48 -31 -71 -45
-149 -90 -61 -36 -72 -47 -62 -62 7 -12 108 25 150 55 53 37 165 79 395 147
108 32 156 40 242 44 151 7 233 -19 208 -66 -15 -28 -12 -88 6 -116 11 -16 17
-49 18 -94 1 -61 -1 -70 -16 -70 -10 0 -18 6 -19 13 0 6 -5 -1 -9 -16 -5 -16
-6 -35 -3 -43 3 -8 0 -14 -6 -14 -24 0 -9 -29 26 -52 84 -53 94 -58 115 -55
18 2 23 -5 31 -36 7 -29 6 -42 -5 -55 -8 -9 -23 -37 -33 -62 -10 -25 -27 -57
-37 -72 -10 -14 -18 -32 -18 -40 0 -7 -10 -33 -22 -58 -25 -53 -25 -54 -37
-105 -4 -22 -16 -53 -25 -70 -9 -16 -16 -44 -16 -61 0 -20 -12 -44 -36 -73
-45 -52 -37 -64 39 -55 46 5 57 10 57 25 0 27 -18 69 -30 69 -6 0 -8 -4 -5
-10 3 -5 1 -10 -5 -10 -20 0 -4 25 16 26 10 1 24 2 30 3 7 0 19 17 29 37 13
29 15 42 6 60 -6 13 -15 24 -21 24 -5 0 -10 7 -10 15 0 17 16 20 25 5 4 -7 11
-7 18 -2 7 5 21 12 31 16 16 5 17 4 7 -8 -10 -12 -9 -13 8 -9 12 3 21 9 21 14
0 5 7 6 15 2 10 -3 15 0 13 8 -2 8 2 13 9 12 8 -2 10 4 6 14 -4 10 -2 14 4 10
6 -4 14 5 18 21 7 30 32 62 49 62 17 0 48 -61 37 -74 -13 -16 -25 -76 -22
-116 1 -26 -1 -31 -8 -20 -5 8 -7 18 -4 23 3 5 -12 -2 -33 -17 -21 -14 -47
-26 -56 -26 -10 0 -19 -8 -20 -17 -8 -100 -7 -108 19 -132 22 -21 24 -29 19
-65 -33 -210 -34 -294 -5 -374 12 -31 29 -79 38 -106 18 -50 49 -88 111 -135
19 -14 39 -32 43 -39 4 -6 34 -31 65 -54 31 -23 61 -47 65 -55 4 -7 19 -13 32
-13 l24 0 -26 50 c-19 36 -27 72 -32 132 -3 45 -11 83 -17 85 -6 2 -16 -14
-23 -36 -11 -38 -74 -102 -87 -89 -2 3 7 27 20 54 50 99 31 155 -35 100 -36
-31 -70 -37 -48 -8 8 9 17 19 20 22 3 3 19 31 34 62 15 31 34 59 41 62 18 7
37 -27 23 -41 -17 -17 -1 -53 24 -53 19 1 20 2 5 11 -18 10 -14 39 6 39 25 0
39 -17 28 -35 -12 -22 19 -62 38 -50 9 6 9 9 0 15 -7 4 -9 16 -6 27 5 14 16
20 39 20 17 0 78 17 135 37 84 30 106 34 121 24 14 -9 17 -17 11 -28 -12 -23
14 -58 59 -78 l36 -17 -38 -3 c-49 -4 -84 18 -95 60 -4 17 -14 34 -20 36 -9 3
-11 -4 -6 -22 5 -22 3 -26 -14 -26 -12 0 -24 5 -27 10 -10 17 -25 11 -25 -10
0 -10 9 -24 20 -30 11 -6 20 -17 20 -24 0 -8 16 -28 36 -46 20 -17 33 -34 30
-37 -12 -13 -77 27 -96 59 -30 50 -63 87 -72 82 -15 -9 -8 -36 10 -41 16 -4
18 -12 14 -52 -3 -32 1 -58 12 -79 46 -89 39 -111 -17 -56 -25 25 -39 52 -48
87 -15 65 -20 73 -30 54 -24 -42 -22 -267 3 -267 5 0 19 11 30 25 11 14 24 25
30 25 6 0 46 21 90 47 58 34 92 63 129 110 27 34 53 63 57 63 40 0 98 131 109
250 3 30 11 64 17 75 13 20 14 57 4 85 -3 8 -11 34 -17 57 -11 41 -19 48 -49
44 -8 -1 -26 6 -40 15 -15 10 -45 21 -67 24 -80 10 -39 25 89 32 71 3 157 11
193 18 71 12 81 9 150 -47 41 -33 42 -34 53 -14 6 12 20 21 32 21 20 0 20 -1
5 -18 -25 -27 -21 -48 13 -62 25 -10 28 -16 23 -41 -6 -34 16 -42 24 -8 4 12
11 18 20 15 19 -8 55 12 47 26 -4 7 9 8 43 3 45 -6 58 -3 114 26 35 17 68 37
74 44 17 21 59 45 77 45 24 0 32 -36 15 -73 -8 -18 -22 -48 -32 -69 -19 -41
-13 -119 11 -139 8 -6 14 -18 14 -25 0 -8 4 -14 10 -14 9 0 7 23 -6 88 -7 35
13 97 43 133 l27 31 18 -22 c10 -12 18 -30 18 -40 0 -10 10 -24 22 -32 19 -13
23 -26 26 -86 3 -42 -1 -86 -9 -109 -19 -56 -19 -64 -3 -87 8 -11 14 -17 14
-12 0 5 10 -4 21 -18 17 -22 24 -25 31 -14 7 10 9 10 7 -2 -2 -24 12 -60 22
-54 5 3 9 1 9 -4 0 -5 10 -17 23 -25 l23 -15 -8 71 c-16 130 11 102 77 -82 14
-39 28 -85 30 -103 11 -81 17 -98 37 -98 19 0 20 4 14 48 -8 62 -43 188 -64
231 -9 19 -15 37 -14 39 2 3 0 8 -5 11 -5 3 -25 40 -45 81 -137 280 -150 304
-224 411 -68 97 -118 158 -137 164 -9 4 -24 20 -32 36 -9 16 -20 29 -26 29 -6
0 -7 5 -4 10 3 6 0 10 -7 10 -9 0 -15 13 -16 34 -2 26 4 41 28 64 33 33 35 43
19 74 -11 20 -11 20 -35 -6 -38 -40 -58 -31 -33 15 14 27 20 97 9 104 -5 3
-18 0 -29 -6 -15 -10 -18 -20 -14 -46 4 -26 2 -34 -13 -39 -11 -4 -26 -13 -34
-20 -8 -6 -42 -19 -75 -27 -56 -14 -62 -14 -101 4 -34 17 -40 24 -39 48 2 34
12 51 29 51 8 0 19 7 26 15 8 9 30 15 57 15 52 0 111 23 130 50 13 19 16 19
46 4 18 -9 36 -24 41 -32 7 -13 12 -11 28 9 45 56 72 109 48 94 -6 -4 -10 18
-10 57 0 54 -5 72 -29 110 -17 26 -41 54 -54 63 -31 20 -78 24 -84 8 -3 -7 1
-13 7 -13 20 0 79 -51 101 -86 22 -36 19 -75 -4 -56 -6 5 -23 13 -37 17 -27 9
-71 37 -111 73 -14 12 -48 31 -75 41 -26 10 -50 23 -51 28 -7 21 75 35 175 31
l100 -4 -27 36 c-31 42 -70 74 -91 76 -90 9 -188 27 -212 39 -27 13 -37 13
-97 -2 -36 -9 -78 -25 -93 -37 -33 -23 -42 -18 -29 16 13 35 73 68 124 69 74
1 90 18 17 18 -83 0 -129 -21 -153 -71 -21 -42 -37 -49 -37 -17 0 25 53 104
75 113 9 3 13 10 10 16 -10 16 -40 -5 -63 -43 -24 -41 -54 -77 -64 -77 -4 0
-5 14 -1 30 6 32 2 35 -26 20 -16 -8 -19 -4 -25 28 -3 20 -6 57 -6 81 0 34 -7
52 -32 84 -18 23 -28 38 -21 34 6 -4 14 -4 17 1 3 5 -13 17 -36 27 -22 9 -43
26 -45 36 -3 11 -9 19 -15 19 -5 0 -4 9 2 20 13 24 22 25 63 6 18 -7 47 -19
65 -26 38 -15 44 -35 7 -26 -14 4 -25 2 -25 -4 0 -5 5 -10 10 -10 6 0 8 -10 4
-24 -6 -25 25 -66 59 -79 9 -3 17 -16 17 -27 0 -29 19 -62 31 -55 12 8 12 65
-1 65 -5 0 -10 6 -10 14 0 8 -16 23 -35 35 -43 25 -49 61 -10 61 14 0 25 -4
25 -9 0 -4 11 -6 25 -3 18 3 25 0 25 -12 0 -9 8 -16 17 -16 9 0 27 -10 40 -22
27 -25 44 -17 19 10 -17 20 -58 42 -113 62 -47 18 -41 28 12 22 60 -6 58 11
-4 34 -28 10 -48 21 -45 25 4 7 68 -7 89 -19 8 -5 175 -11 175 -6 0 1 -21 9
-48 17 -54 18 -154 34 -226 36 -26 1 -67 8 -90 16 -71 23 -148 28 -171 11z
m-68 -277 c18 -16 56 -99 48 -107 -2 -3 -14 6 -24 20 -11 14 -45 38 -75 54
-36 19 -52 33 -48 42 6 17 74 11 99 -9z m-1060 -15 c-3 -3 -12 -4 -19 -1 -8 3
-5 6 6 6 11 1 17 -2 13 -5z m903 -34 c8 -5 11 -10 5 -10 -5 0 -20 -3 -32 -6
-17 -5 -23 -2 -23 10 0 18 27 21 50 6z m-183 -73 c12 -23 28 -58 37 -77 19
-46 62 -77 113 -81 23 -3 39 -1 37 3 -3 5 10 9 28 9 18 1 56 3 83 4 28 1 69
10 93 20 34 14 46 15 55 6 22 -22 -41 -48 -121 -50 -23 0 -41 -5 -40 -9 2 -5
-11 -21 -29 -36 -28 -23 -41 -27 -90 -26 -32 1 -74 -2 -94 -5 -23 -4 -39 -3
-43 4 -4 6 -1 11 6 11 7 0 4 8 -9 18 -49 38 -116 203 -100 245 11 28 52 8 74
-36z m248 33 c3 -5 -1 -10 -9 -10 -9 0 -16 5 -16 10 0 6 4 10 9 10 6 0 13 -4
16 -10z m-195 -60 c25 -48 25 -49 0 -43 -11 3 -20 13 -20 22 0 9 -3 26 -6 39
-10 35 4 26 26 -18z m154 -13 c121 -54 124 -71 7 -46 -41 9 -57 18 -83 52 -18
22 -26 38 -18 35 8 -4 50 -22 94 -41z m-447 1 c-3 -8 -6 -5 -6 6 -1 11 2 17 5
13 3 -3 4 -12 1 -19z m882 -78 c12 -22 40 -50 62 -63 51 -29 61 -51 18 -42
-31 7 -32 7 -15 -16 20 -29 20 -39 0 -39 -17 0 -53 38 -54 56 -1 33 -71 51
-105 28 -14 -11 -16 -14 -4 -14 24 0 98 -53 105 -75 4 -11 20 -35 35 -53 16
-18 29 -44 29 -57 0 -30 -15 -32 -30 -5 -7 12 -25 22 -51 26 -21 4 -42 11 -45
15 -3 5 -16 9 -29 9 -25 0 -105 60 -119 91 -5 10 -15 19 -23 19 -7 0 -13 9
-13 20 0 25 47 28 64 4 15 -19 46 -8 46 17 0 22 46 47 75 41 11 -2 28 -11 38
-20 28 -25 33 -4 5 26 -14 15 -31 37 -37 50 -10 19 -9 22 7 22 11 0 27 -16 41
-40z m425 30 c56 -9 99 -23 136 -48 3 -2 -4 -10 -14 -18 -12 -8 -43 -14 -77
-14 -34 0 -80 -9 -113 -21 -31 -12 -60 -19 -64 -15 -9 10 40 46 92 68 l41 18
-40 -6 c-39 -6 -77 -25 -103 -51 -7 -7 -23 -13 -35 -13 -23 0 -67 25 -67 38 0
14 17 33 31 36 8 2 30 10 49 19 41 19 70 20 164 7z m-513 -19 c13 -11 21 -22
18 -25 -9 -9 -69 17 -69 31 0 19 24 16 51 -6z m174 -31 c3 -5 -1 -10 -10 -10
-25 0 -55 19 -55 36 0 13 3 13 29 -1 17 -8 33 -19 36 -25z m-861 -105 c-7 -40
-29 -64 -37 -41 -4 9 -1 30 4 48 6 18 13 40 16 48 9 29 24 -18 17 -55z m462
-18 c-15 -10 -26 -24 -26 -31 0 -19 50 -110 65 -118 7 -4 16 -27 19 -50 9 -53
31 -87 47 -71 9 9 8 16 -5 28 -26 27 -19 37 22 29 68 -13 158 -9 185 9 14 9
42 18 64 20 31 3 41 9 54 35 17 32 28 30 42 -8 3 -8 6 4 6 28 1 23 6 42 11 42
14 0 30 -44 30 -79 0 -15 13 -46 28 -67 46 -64 46 -64 13 -64 -22 0 -31 5 -31
17 0 9 -2 14 -5 11 -9 -9 6 -58 16 -52 11 7 68 -27 94 -56 18 -20 41 -72 52
-117 4 -18 1 -23 -14 -23 -10 0 -25 -9 -33 -21 -21 -29 -58 -69 -65 -69 -3 0
-5 7 -5 16 0 9 -11 29 -25 45 -13 16 -33 58 -44 92 -39 120 -81 232 -76 197
20 -128 19 -146 -12 -179 -35 -36 -35 -36 -84 -14 -32 14 -38 20 -33 40 6 23
-9 32 -22 12 -4 -7 -18 0 -38 18 -58 55 -89 73 -122 73 -22 0 -44 10 -66 28
-18 15 -53 36 -78 47 -58 24 -103 64 -94 85 10 26 12 62 4 89 l-8 26 -1 -25
c-2 -52 -22 -101 -39 -98 -19 4 -35 65 -19 75 6 4 1 10 -11 14 -46 17 -17 38
86 63 35 9 74 16 88 16 17 0 25 7 30 27 l7 27 9 -24 c7 -20 5 -28 -16 -43z
m534 2 c0 -11 -38 -22 -50 -14 -19 12 -10 22 20 22 17 0 30 -4 30 -8z m215
-61 c14 -6 28 -23 31 -37 3 -14 7 -32 10 -38 2 -7 1 -13 -3 -13 -5 0 -90 51
-112 67 -7 5 22 33 35 33 7 0 25 -5 39 -12z m-983 -28 c-3 -33 -6 -34 -54 -22
-24 6 -62 14 -85 18 -68 9 -50 23 35 27 108 5 107 5 104 -23z m928 -100 c0 -5
-4 -10 -10 -10 -5 0 -10 5 -10 10 0 6 5 10 10 10 6 0 10 -4 10 -10z m98 -39
c3 -8 -1 -12 -9 -9 -7 2 -15 10 -17 17 -3 8 1 12 9 9 7 -2 15 -10 17 -17z
m-1058 -20 c0 -10 -6 -24 -14 -30 -11 -9 -15 -8 -20 6 -4 10 -2 19 3 21 6 2 9
8 5 13 -3 5 2 9 10 9 9 0 16 -8 16 -19z m95 -21 c8 -13 -26 -70 -42 -70 -7 0
-11 6 -9 13 3 6 7 24 10 40 6 27 29 36 41 17z m75 -40 c0 -28 -29 -70 -47 -70
-12 0 -14 7 -9 32 3 17 11 37 17 45 17 20 39 16 39 -7z m85 -50 c16 -17 16
-24 5 -44 -13 -26 -49 -41 -63 -27 -12 12 11 91 27 91 7 0 21 -9 31 -20z m103
-48 c4 -12 -35 -92 -45 -92 -3 0 -14 7 -24 16 -17 16 -17 18 2 55 15 30 24 38
41 35 12 -1 24 -8 26 -14z m80 -38 c3 -19 -40 -74 -58 -74 -28 0 -17 40 24 87
15 17 30 11 34 -13z m267 -34 c10 -16 -3 -44 -26 -58 -34 -22 -45 1 -18 37 24
33 34 37 44 21z m-215 -17 c0 -18 -37 -63 -52 -63 -12 0 1 41 20 63 19 22 32
22 32 0z m-558 -59 c-8 -15 -10 -14 -14 3 -3 10 0 30 5 43 l11 25 4 -27 c2
-15 -1 -35 -6 -44z m586 -4 c-31 -25 -36 -5 -7 27 20 20 25 22 27 9 2 -9 -7
-25 -20 -36z m200 -9 c-3 -31 -1 -37 9 -29 7 6 13 19 13 30 0 29 24 16 28 -15
2 -15 10 -27 18 -27 8 0 14 -6 14 -12 0 -7 3 -24 7 -38 6 -24 6 -25 -14 -7
-11 9 -27 15 -36 12 -8 -4 -18 -1 -22 4 -3 6 -11 9 -16 6 -5 -4 -9 0 -9 8 0 8
-7 17 -15 21 -17 6 -19 24 -5 60 15 40 33 32 28 -13z m-733 -40 c-3 -12 -11
-21 -16 -21 -10 0 -12 43 -2 54 12 12 25 -11 18 -33z m611 27 c4 -6 -5 -21
-22 -35 -51 -41 -75 -23 -29 22 27 28 40 31 51 13z m-901 -28 c-10 -11 -25
-20 -34 -20 -12 0 -9 6 9 20 33 26 48 26 25 0z m333 -124 c53 -33 126 -64 196
-82 63 -17 335 -22 420 -8 24 4 36 3 32 -4 -15 -25 -279 -36 -404 -16 -135 21
-283 105 -354 201 -47 62 -31 57 23 -7 27 -33 67 -71 87 -84z m1012 104 c-23
-32 -39 -45 -46 -37 -7 6 45 67 58 67 5 0 0 -13 -12 -30z m-980 -12 c0 -30
-15 -52 -29 -44 -12 8 -15 49 -4 59 14 15 33 6 33 -15z m67 1 c9 -9 7 -20 -5
-45 -26 -55 -48 -41 -31 19 10 39 18 44 36 26z m503 3 c0 -4 -9 -13 -20 -20
-24 -15 -26 -9 -4 12 17 18 24 20 24 8z m-676 -132 c-8 -36 -17 -41 -48 -28
-24 12 -27 17 -22 48 3 19 6 46 6 60 0 24 2 23 35 -15 26 -30 33 -46 29 -65z
m253 83 c6 -16 -42 -67 -55 -59 -13 8 -6 33 16 59 16 18 33 18 39 0z m63 -40
c-1 -15 -39 -58 -46 -51 -8 9 22 58 36 58 6 0 10 -3 10 -7z m160 -38 c0 -31
-3 -35 -25 -35 l-25 0 17 35 c9 19 20 35 25 35 4 0 8 -16 8 -35z m-95 3 c-4
-13 -11 -27 -16 -32 -15 -16 -20 0 -10 28 13 32 35 36 26 4z m165 -31 c0 -5
-4 -5 -10 -2 -5 3 -10 14 -10 23 0 15 2 15 10 2 5 -8 10 -19 10 -23z m217 -23
c-3 -3 -12 -4 -19 -1 -8 3 -5 6 6 6 11 1 17 -2 13 -5z m588 -14 c19 -30 -40
-69 -149 -99 -73 -20 -111 -16 -122 14 -4 8 -12 15 -20 15 -26 0 -14 16 24 33
23 10 66 17 103 18 35 0 80 6 99 13 45 17 57 18 65 6z m-1435 -153 c0 -8 -3
-17 -6 -20 -10 -9 -46 12 -39 24 9 14 45 11 45 -4z m351 -43 c11 -13 9 -23
-11 -62 -13 -26 -30 -55 -39 -65 -8 -9 -15 -25 -16 -35 -3 -31 -17 -66 -43
-108 -26 -42 -26 -42 -42 -20 -51 66 -66 194 -30 254 15 25 27 32 52 33 18 1
44 5 58 9 39 13 57 11 71 -6z m-373 -6 c20 -20 14 -30 -15 -26 -32 4 -46 38
-16 38 11 0 24 -5 31 -12z m12 -94 c0 -8 5 -14 10 -14 6 0 10 -4 10 -8 0 -12
-59 -2 -67 11 -7 12 26 39 38 31 5 -3 9 -12 9 -20z m100 -31 c14 -65 66 -170
73 -150 3 6 6 8 6 2 0 -5 -3 -16 -8 -23 -6 -11 -15 -8 -37 13 -16 15 -29 31
-29 35 0 5 -3 12 -8 16 -4 4 -4 23 -1 41 3 18 2 39 -4 46 -11 14 -21 77 -12
77 4 0 13 -26 20 -57z m329 -12 c-19 -36 -109 -131 -125 -131 -14 0 36 84 91
152 25 31 31 35 38 22 6 -10 4 -26 -4 -43z m146 39 c0 -9 -11 -16 -27 -18 -23
-3 -28 1 -28 18 0 17 5 21 28 18 16 -2 27 -9 27 -18z m-10 -61 c6 -6 4 -15 -6
-24 -13 -13 -17 -13 -36 0 -28 20 -20 48 11 39 11 -3 25 -10 31 -15z m1179 5
c14 -38 -7 -124 -30 -124 -14 0 -15 10 -9 63 4 34 9 65 12 70 7 12 21 8 27 -9z
m-1720 -9 c7 -19 -32 -41 -46 -27 -15 15 -2 42 21 42 10 0 21 -7 25 -15z m470
-32 c-10 -7 -21 -13 -26 -13 -4 0 -8 -6 -8 -12 0 -15 -54 -52 -90 -63 -21 -6
-18 -1 15 27 22 18 53 45 70 59 16 15 36 24 44 21 11 -4 10 -8 -5 -19z m-440
-30 c7 -18 -9 -35 -69 -74 -32 -20 -62 -24 -84 -10 -10 7 -2 14 30 28 25 11
58 32 73 46 34 32 42 33 50 10z m485 3 c11 -13 5 -46 -8 -46 -13 0 -31 24 -31
42 0 21 23 24 39 4z m-489 -74 c0 -4 -9 -13 -20 -20 -22 -13 -27 -3 -8 16 14
14 28 16 28 4z"/>
<path d="M2314 2575 c16 -9 32 -13 35 -10 8 9 -21 25 -44 25 -16 0 -14 -3 9
-15z"/>
<path d="M2355 2559 c-4 -6 2 -17 14 -25 12 -8 21 -22 21 -31 0 -16 26 -49
107 -137 39 -42 43 -51 30 -61 -13 -9 -11 -13 11 -22 15 -6 44 -13 64 -16 l36
-5 -20 34 c-11 19 -24 37 -29 40 -11 7 -79 112 -79 122 0 13 -73 79 -107 96
-38 19 -40 19 -48 5z"/>
<path d="M2150 2496 c0 -9 9 -14 20 -13 24 2 26 13 4 21 -22 8 -24 8 -24 -8z"/>
<path d="M2200 2461 c0 -11 39 -59 40 -49 0 14 -23 58 -32 58 -4 0 -8 -4 -8
-9z"/>
<path d="M2340 2456 c0 -2 15 -9 33 -15 29 -10 30 -9 13 4 -18 14 -46 20 -46
11z"/>
<path d="M2585 2110 c-3 -5 1 -10 9 -10 9 0 16 5 16 10 0 6 -4 10 -9 10 -6 0
-13 -4 -16 -10z"/>
<path d="M866 2021 c-3 -5 1 -14 9 -21 8 -7 15 -18 15 -26 0 -16 31 -27 54
-18 25 9 19 22 -13 29 -17 3 -31 14 -34 26 -5 20 -22 25 -31 10z"/>
<path d="M1022 1831 c-7 -19 -19 -31 -34 -34 -22 -4 -22 -4 3 -6 28 -1 59 26
59 52 0 27 -17 20 -28 -12z"/>
<path d="M950 1510 c-9 -6 -10 -10 -3 -10 6 0 15 5 18 10 8 12 4 12 -15 0z"/>
<path d="M855 1459 c-68 -42 -82 -59 -20 -24 45 25 86 55 75 55 -3 0 -27 -14
-55 -31z"/>
<path d="M700 1360 c-8 -5 -10 -10 -5 -10 6 0 17 5 25 10 8 5 11 10 5 10 -5 0
-17 -5 -25 -10z"/>
<path d="M483 1262 c-64 -26 -74 -44 -12 -21 30 11 58 25 64 30 14 13 -4 10
-52 -9z"/>
<path d="M364 1258 c-5 -7 2 -9 20 -4 20 5 26 3 21 -5 -5 -7 0 -7 16 1 13 7
25 14 27 15 2 2 -15 3 -37 3 -22 0 -44 -4 -47 -10z"/>
<path d="M326 1185 c4 -8 9 -15 13 -15 11 1 45 30 35 30 -6 0 -15 -5 -22 -12
-9 -9 -12 -9 -12 0 0 7 -4 12 -10 12 -5 0 -7 -7 -4 -15z"/>
<path d="M811 1154 c0 -11 3 -14 6 -6 3 7 2 16 -1 19 -3 4 -6 -2 -5 -13z"/>
<path d="M233 1108 c-29 -21 -59 -57 -51 -62 2 -1 23 17 46 41 50 49 51 53 5
21z"/>
<path d="M2377 1014 c-11 -11 -8 -26 3 -19 6 3 10 2 10 -3 0 -13 -30 -37 -31
-26 -2 18 -28 -112 -29 -141 0 -17 -5 -36 -12 -43 -6 -6 -12 -38 -12 -69 -1
-45 -5 -58 -17 -61 -24 -5 -29 -45 -18 -152 12 -115 13 -120 37 -120 11 0 25
-7 32 -15 10 -12 9 -16 -4 -21 -32 -12 -15 -24 37 -24 46 0 53 3 54 20 2 24
-3 25 -24 5 -18 -18 -33 -11 -33 16 0 11 -7 19 -16 19 -30 0 -7 25 24 26 59 2
54 14 -10 28 -39 9 -37 36 3 36 40 0 29 16 -17 24 -42 8 -41 28 2 37 l29 6
-27 13 c-38 18 -34 38 5 31 5 -1 -4 15 -20 36 l-28 36 35 -6 35 -7 -24 19
c-20 15 -22 21 -11 40 7 13 9 38 5 60 -3 20 -1 68 5 106 9 55 17 74 37 90 15
13 24 28 22 40 -4 20 -29 31 -42 19z"/>
<path d="M2674 1011 c3 -5 -5 -16 -17 -24 -25 -16 -32 -47 -12 -47 20 0 58 48
52 64 -4 9 -11 16 -17 16 -6 0 -9 -4 -6 -9z"/>
<path d="M2687 891 c-5 -22 -13 -30 -39 -36 -18 -4 -27 -9 -20 -12 21 -8 71
18 93 48 l20 29 -24 0 c-19 0 -26 -6 -30 -29z"/>
<path d="M1560 651 c-7 -13 -7 -22 0 -26 15 -9 30 4 30 26 0 25 -16 25 -30 0z"/>
</g>
</svg>
