<?xml version="1.0" standalone="no"?>
<!DOCTYPE svg PUBLIC "-//W3C//DTD SVG 20010904//EN"
 "http://www.w3.org/TR/2001/REC-SVG-20010904/DTD/svg10.dtd">
<svg version="1.0" xmlns="http://www.w3.org/2000/svg"
 width="300.000000pt" height="300.000000pt" viewBox="0 0 300.000000 300.000000"
 preserveAspectRatio="xMidYMid meet">
<metadata>
Created by potrace 1.11, written by Peter Selinger 2001-2013
</metadata>
<g transform="translate(0.000000,300.000000) scale(0.100000,-0.100000)"
fill="#000000" stroke="none">
<path d="M1365 2984 c-292 -42 -495 -115 -706 -256 -129 -85 -315 -272 -402
-403 -114 -173 -184 -341 -228 -545 -19 -88 -23 -136 -23 -290 0 -154 4 -202
23 -290 66 -308 195 -545 415 -766 222 -221 474 -356 778 -415 139 -27 437
-27 576 0 571 111 1032 543 1173 1100 28 110 29 120 29 371 0 251 -1 261 -29
371 -141 556 -596 984 -1170 1100 -92 19 -366 33 -436 23z m-125 -834 l0 -349
163 -79 c239 -115 662 -352 760 -424 16 -12 12 -21 -49 -111 l-65 -98 -32 24
c-181 137 -447 310 -647 419 l-125 68 -3 -560 -2 -560 -100 0 -100 0 0 1010 0
1010 100 0 100 0 0 -350z m1098 58 c28 -42 52 -78 52 -81 0 -2 -31 -25 -69
-50 l-69 -46 -65 97 c-36 53 -89 123 -118 156 -41 46 -49 60 -38 67 8 4 37 24
64 43 l50 35 70 -72 c39 -41 94 -107 123 -149z m-388 12 c64 -83 154 -220 148
-224 -1 -2 -31 -22 -65 -44 -62 -42 -83 -50 -83 -32 0 10 -145 226 -186 277
l-25 31 63 45 c73 53 65 56 148 -53z"/>
</g>
</svg>
